<svg width="53" height="48" viewBox="0 0 53 48" fill="none" xmlns="http://www.w3.org/2000/svg">
<path d="M5 26.2132L26.2132 5L47.4264 26.2132L26.2132 47.4264L5 26.2132Z" fill="white"/>
<path d="M30 15C30 23.2843 23.2843 30 15 30C6.71573 30 0 23.2843 0 15C0 6.71573 6.71573 0 15 0C23.2843 0 30 6.71573 30 15Z" fill="white"/>
<path d="M52.5 15.0082C52.5 23.2924 45.7843 30.0082 37.5 30.0082C29.2157 30.0082 22.5 23.2924 22.5 15.0082C22.5 6.7239 29.2157 0.00817633 37.5 0.00817633C45.7843 0.00817633 52.5 6.7239 52.5 15.0082Z" fill="white"/>
</svg>
