<svg width="60" height="51" viewBox="0 0 60 51" fill="none" xmlns="http://www.w3.org/2000/svg">
<path d="M50 2.3337C35.2 14.3337 11.8333 16.0004 2 15.3337L12.5 27.8337C21 29.3337 45.5 19.8337 51.5 8.3337C56.3 -0.866296 52.5 0.500371 50 2.3337Z" fill="black"/>
<path d="M55.0284 16.1365C44.41 31.5021 22.8846 39.5098 13.4492 41.593L26.7722 50.4558C35.1827 49.5239 55.6161 33.8363 58.0928 21.3664C60.0741 11.3904 56.8754 13.7232 55.0284 16.1365Z" fill="black"/>
<path d="M50 2.3337C35.2 14.3337 11.8333 16.0004 2 15.3337L12.5 27.8337C21 29.3337 45.5 19.8337 51.5 8.3337C56.3 -0.866296 52.5 0.500371 50 2.3337Z" stroke="black"/>
<path d="M55.0284 16.1365C44.41 31.5021 22.8846 39.5098 13.4492 41.593L26.7722 50.4558C35.1827 49.5239 55.6161 33.8363 58.0928 21.3664C60.0741 11.3904 56.8754 13.7232 55.0284 16.1365Z" stroke="black"/>
</svg>
